# xmcd
#
# Track frame offsets:
#	150
#	13251
#	24721
#	38501
#	49945
#	63921
#	74356
#	88382
#	100453
#	113035
#	127181
#	142451
#	154651
#	168441
#	182441
#	195208
#
# Disc length: 3084 seconds
#
# Revision: 1
# Processed by: cddbd v1.5.2PL0 Copyright (c) Steve Scherf et al.
# Submitted via: audiograbber 1.83.01
#
DISCID=e40c0a10
DTITLE=Various Artist - Experience - The Jazz And Blues Collection - CD1-4
DYEAR=2005
DGENRE=Jazz Blues
TTITLE0=Muddy Waters - Mannish Boy
TTITLE1=John Lee Hooker - Boom Boom
TTITLE2=Willie Dixon - Walkin' The Blues
TTITLE3=Little Walter - My Baby
TTITLE4=Howlin' Wolf - Smokestack Lightnin'
TTITLE5=Sonny Boy Williamson - Let Your Consience Be Your Guide
TTITLE6=Little Milton - I'm Gonna Move To The Outskirts Of Town
TTITLE7=Buddy Guy - Ten Years Ago
TTITLE8=Albert King - California Blues
TTITLE9=Willie Mabon - I Don't Know
TTITLE10=B.B. King - How Blue Can You Get
TTITLE11=Otis Spann - It Must Have Been The Devil
TTITLE12=Elmore James - Dust My Broom
TTITLE13=Memphis Slim - Trouble In Mind
TTITLE14=John Lee hooker - Hobo Blues
TTITLE15=Big Joe Turner - Roll Me Baby
EXTD=
EXTT0=
EXTT1=
EXTT2=
EXTT3=
EXTT4=
EXTT5=
EXTT6=
EXTT7=
EXTT8=
EXTT9=
EXTT10=
EXTT11=
EXTT12=
EXTT13=
EXTT14=
EXTT15=
PLAYORDER=
